<svg fill="#007ACC" role="img" viewBox="0 0 24 24" xmlns="http://www.w3.org/2000/svg"><title>Visual Studio Code</title><path d="M23.15 2.587L18.21.21a1.526 1.526 0 0 0-1.192-.016L9.21 3.586 2.85 6.592A1.526 1.526 0 0 0 2 8.117v7.766c0 .62.373 1.178.944 1.412l6.36 3.006 7.808 3.392a1.526 1.526 0 0 0 1.192-.016l4.94-2.377A1.526 1.526 0 0 0 24 20.883V4.117a1.526 1.526 0 0 0-.85-1.53zm-8.411 11.53l-6.35-3.006-.034-.017 6.384-3.023.034.017 6.35 3.006-.034.017-6.384 3.006zm1.003-10.97l6.35 3.006v11.94l-6.35-3.006V3.147zm-9.21 4.97L3.85 8.883v6.234l3.583 1.692V8.117z"/></svg>
